<svg width="47" height="47" viewBox="0 0 47 47" fill="none" xmlns="http://www.w3.org/2000/svg">
    <path d="M3.91669 11.8334C3.91669 9.94776 3.91669 9.00495 4.50247 8.41916C5.08826 7.83337 6.03107 7.83337 7.91669 7.83337H15.9682C16.7857 7.83337 17.1944 7.83337 17.562 7.98561C17.9295 8.13786 18.2185 8.42689 18.7966 9.00495L23.5 13.7084H3.91669V11.8334Z" fill="#00256F"/>
    <path d="M4.89581 14.6875H38.1041C39.9898 14.6875 40.9326 14.6875 41.5184 15.2733C42.1041 15.8591 42.1041 16.8019 42.1041 18.6875V34.1875C42.1041 36.0731 42.1041 37.0159 41.5184 37.6017C40.9326 38.1875 39.9898 38.1875 38.1041 38.1875H8.89581C7.01019 38.1875 6.06739 38.1875 5.4816 37.6017C4.89581 37.0159 4.89581 36.0731 4.89581 34.1875V14.6875Z" fill="#2A4157" fill-opacity="0.24" stroke="#00256F"/>
</svg>