<svg width="63" height="62" viewBox="0 0 63 62" fill="none" xmlns="http://www.w3.org/2000/svg">
    <rect width="62" height="62" rx="9" fill="#246BF9" fill-opacity="0.22"/>
    <path fill-rule="evenodd" clip-rule="evenodd" d="M17.7917 41.3333H42.3334C47.2046 41.3333 49.6401 41.3333 51.1534 39.82C52.6667 38.3068 52.6667 35.8712 52.6667 31V18.0833C52.6667 13.2122 52.6667 10.7766 51.1534 9.26328C49.6401 7.75 47.2046 7.75 42.3334 7.75H21.6667C16.7955 7.75 14.3599 7.75 12.8467 9.26328C11.3334 10.7766 11.3334 13.2122 11.3334 18.0833V47.7917C11.3334 44.2248 14.2249 41.3333 17.7917 41.3333ZM41.1641 19.2526C40.3831 18.4716 39.117 18.4716 38.336 19.2526L29.4161 28.1716L25.6641 24.4196C24.8831 23.6385 23.617 23.6385 22.836 24.4196C22.0551 25.2007 22.055 26.4667 22.836 27.2477L27.295 31.7067C28.4665 32.8783 30.3666 32.8783 31.5381 31.7067L41.1641 22.0807C41.9452 21.2997 41.9452 20.0337 41.1641 19.2526Z" fill="#00256F"/>
    <path d="M51.1534 39.82L50.4463 39.1129V39.1129L51.1534 39.82ZM51.1534 9.26328L50.4463 9.97039V9.97039L51.1534 9.26328ZM38.336 19.2526L39.043 19.9598L39.0431 19.9597L38.336 19.2526ZM41.1641 19.2526L40.457 19.9597V19.9597L41.1641 19.2526ZM29.4161 28.1716L28.7089 28.8787L29.416 29.5857L30.1231 28.8787L29.4161 28.1716ZM25.6641 24.4196L24.957 25.1267L24.957 25.1267L25.6641 24.4196ZM22.836 24.4196L22.1289 23.7125L22.1288 23.7126L22.836 24.4196ZM22.836 27.2477L23.5431 26.5406V26.5406L22.836 27.2477ZM27.295 31.7067L26.5879 32.4138V32.4138L27.295 31.7067ZM31.5381 31.7067L32.2452 32.4138H32.2452L31.5381 31.7067ZM41.1641 22.0807L40.457 21.3736L40.457 21.3736L41.1641 22.0807ZM42.3334 41.3333V40.3333H17.7917V41.3333V42.3333H42.3334V41.3333ZM51.1534 39.82L50.4463 39.1129C49.9064 39.6528 49.1654 39.9788 47.8694 40.1531C46.5445 40.3312 44.7972 40.3333 42.3334 40.3333V41.3333V42.3333C44.7407 42.3333 46.6468 42.3355 48.1359 42.1353C49.6537 41.9312 50.8871 41.5006 51.8605 40.5272L51.1534 39.82ZM52.6667 31H51.6667C51.6667 33.4639 51.6646 35.2112 51.4865 36.536C51.3122 37.8321 50.9862 38.5731 50.4463 39.1129L51.1534 39.82L51.8605 40.5272C52.8339 39.5537 53.2646 38.3203 53.4686 36.8025C53.6688 35.3134 53.6667 33.4073 53.6667 31H52.6667ZM52.6667 18.0833H51.6667V31H52.6667H53.6667V18.0833H52.6667ZM51.1534 9.26328L50.4463 9.97039C50.9862 10.5103 51.3122 11.2513 51.4865 12.5473C51.6646 13.8722 51.6667 15.6195 51.6667 18.0833H52.6667H53.6667C53.6667 15.676 53.6688 13.7699 53.4686 12.2808C53.2646 10.763 52.8339 9.52958 51.8605 8.55617L51.1534 9.26328ZM42.3334 7.75V8.75C44.7972 8.75 46.5445 8.75212 47.8694 8.93024C49.1654 9.10449 49.9064 9.43052 50.4463 9.97039L51.1534 9.26328L51.8605 8.55618C50.8871 7.58277 49.6537 7.15215 48.1359 6.94808C46.6468 6.74788 44.7407 6.75 42.3334 6.75V7.75ZM21.6667 7.75V8.75H42.3334V7.75V6.75H21.6667V7.75ZM12.8467 9.26328L13.5538 9.97039C14.0936 9.43052 14.8347 9.10449 16.1307 8.93024C17.4556 8.75212 19.2028 8.75 21.6667 8.75V7.75V6.75C19.2594 6.75 17.3533 6.74788 15.8642 6.94808C14.3464 7.15215 13.113 7.58277 12.1395 8.55617L12.8467 9.26328ZM11.3334 18.0833H12.3334C12.3334 15.6195 12.3355 13.8722 12.5136 12.5473C12.6879 11.2513 13.0139 10.5103 13.5538 9.97039L12.8467 9.26328L12.1395 8.55617C11.1661 9.52958 10.7355 10.763 10.5315 12.2808C10.3313 13.7699 10.3334 15.676 10.3334 18.0833H11.3334ZM11.3334 47.7917H12.3334V18.0833H11.3334H10.3334V47.7917H11.3334ZM17.7917 41.3333V40.3333C13.6726 40.3333 10.3334 43.6725 10.3334 47.7917H11.3334H12.3334C12.3334 44.7771 14.7772 42.3333 17.7917 42.3333V41.3333ZM38.336 19.2526L39.0431 19.9597C39.4336 19.5692 40.0665 19.5692 40.457 19.9597L41.1641 19.2526L41.8712 18.5455C40.6996 17.3739 38.8004 17.3739 37.6289 18.5455L38.336 19.2526ZM29.4161 28.1716L30.1231 28.8787L39.043 19.9598L38.336 19.2526L37.6289 18.5455L28.709 27.4644L29.4161 28.1716ZM25.6641 24.4196L24.957 25.1267L28.7089 28.8787L29.4161 28.1716L30.1232 27.4644L26.3712 23.7125L25.6641 24.4196ZM22.836 24.4196L23.5431 25.1267C23.9336 24.7362 24.5665 24.7362 24.957 25.1267L25.6641 24.4196L26.3712 23.7125C25.1996 22.5409 23.3004 22.5409 22.1289 23.7125L22.836 24.4196ZM22.836 27.2477L23.5431 26.5406C23.1527 26.1502 23.1526 25.5173 23.5432 25.1266L22.836 24.4196L22.1288 23.7126C20.9576 24.8841 20.9573 26.7832 22.1289 27.9548L22.836 27.2477ZM27.295 31.7067L28.0021 30.9996L23.5431 26.5406L22.836 27.2477L22.1289 27.9548L26.5879 32.4138L27.295 31.7067ZM31.5381 31.7067L30.831 30.9996C30.05 31.7806 28.7831 31.7806 28.0021 30.9996L27.295 31.7067L26.5879 32.4138C28.1499 33.9759 30.6831 33.9759 32.2452 32.4138L31.5381 31.7067ZM41.1641 22.0807L40.457 21.3736L30.831 30.9996L31.5381 31.7067L32.2452 32.4138L41.8712 22.7878L41.1641 22.0807ZM41.1641 19.2526L40.457 19.9597C40.8475 20.3502 40.8475 20.9831 40.457 21.3736L41.1641 22.0807L41.8712 22.7878C43.0428 21.6163 43.0428 19.7171 41.8712 18.5455L41.1641 19.2526ZM29.4167 54.25V53.25H17.7917V54.25V55.25H29.4167V54.25ZM11.3334 47.7917H10.3334C10.3334 51.9108 13.6726 55.25 17.7917 55.25V54.25V53.25C14.7772 53.25 12.3334 50.8062 12.3334 47.7917H11.3334Z" fill="#00256F"/>
    <path d="M52.6667 54.25H26.8334" stroke="#00256F" stroke-width="2" stroke-linecap="round"/>
</svg>