<svg width="18" height="20" viewBox="0 0 18 20" fill="none" xmlns="http://www.w3.org/2000/svg">
    <path d="M12.75 6C15.3734 6 17.5 8.12665 17.5 10.75V14.75C17.5 17.3734 15.3734 19.5 12.75 19.5H4.75C2.12665 19.5 0 17.3734 0 14.75V10.75C0 8.12665 2.12665 6 4.75 6H12.75ZM11.7803 10.7197C11.4875 10.4269 11.0126 10.4272 10.7197 10.7197L8.25 13.1895L7.28027 12.2197C6.98737 11.927 6.51257 11.9269 6.21973 12.2197C5.92689 12.5126 5.92699 12.9874 6.21973 13.2803L7.71973 14.7803C8.01262 15.0732 8.48738 15.0732 8.78027 14.7803L11.7803 11.7803C12.0728 11.4874 12.0731 11.0125 11.7803 10.7197Z" fill="white" fill-opacity="0.54"/>
    <path d="M12.75 6.75V4.75C12.75 2.54086 10.9591 0.75 8.75 0.75C6.54086 0.75 4.75 2.54086 4.75 4.75L4.75 6.75" stroke="white" stroke-opacity="0.54" stroke-width="1.5"/>
</svg>
